<svg viewBox="0 0 4 4" xmlns="http://www.w3.org/2000/svg" shape-rendering="crispEdges">
  <rect x="0" y="0" width="1" height="1" fill="#24273a"/>
  <rect x="1" y="0" width="1" height="1" fill="#1e2030"/>
  <rect x="2" y="0" width="1" height="1" fill="#363a4f"/>
  <rect x="3" y="0" width="1" height="1" fill="#494d64"/>
  <rect x="0" y="1" width="1" height="1" fill="#5b6078"/>
  <rect x="1" y="1" width="1" height="1" fill="#cad3f5"/>
  <rect x="2" y="1" width="1" height="1" fill="#f4dbd6"/>
  <rect x="3" y="1" width="1" height="1" fill="#b7bdf8"/>
  <rect x="0" y="2" width="1" height="1" fill="#ed8796"/>
  <rect x="1" y="2" width="1" height="1" fill="#f5a97f"/>
  <rect x="2" y="2" width="1" height="1" fill="#eed49f"/>
  <rect x="3" y="2" width="1" height="1" fill="#a6da95"/>
  <rect x="0" y="3" width="1" height="1" fill="#8bd5ca"/>
  <rect x="1" y="3" width="1" height="1" fill="#8aadf4"/>
  <rect x="2" y="3" width="1" height="1" fill="#c6a0f6"/>
  <rect x="3" y="3" width="1" height="1" fill="#f0c6c6"/>
</svg>
